<svg width="22" height="23" viewBox="0 0 22 23" fill="none" xmlns="http://www.w3.org/2000/svg">
<path d="M11 0.354004C12.1835 6.0272 16.4887 10.4588 22 11.6771C16.4887 12.8953 12.1835 17.327 11 23.0002C9.81651 17.327 5.51132 12.8953 0 11.6771C5.51132 10.4588 9.81651 6.0272 11 0.354004Z" fill="#E500AC"/>
<path d="M19.1185 0C19.423 1.37398 20.5308 2.44727 21.9489 2.74231C20.5308 3.03735 19.423 4.11064 19.1185 5.48462C18.814 4.11064 17.7062 3.03735 16.2881 2.74231C17.7062 2.44727 18.814 1.37398 19.1185 0Z" fill="#E500AC"/>
<path d="M2.84351 17.8252C3.0719 18.8557 3.90273 19.6606 4.96632 19.8819C3.90273 20.1032 3.0719 20.9082 2.84351 21.9387C2.61512 20.9082 1.78429 20.1032 0.720703 19.8819C1.78429 19.6606 2.61512 18.8557 2.84351 17.8252Z" fill="#E500AC"/>
</svg>
